PathFileType	4	(X/Y/Z)	/Users/itak/Documents/Research/Walk-IL/dataset/trc/00203_00008.trc
DataRate	CameraRate	NumFrames	NumMarkers	Units	OrigDataRate	OrigDataStartFrame	OrigNumFrames
100.000000	100.000000	4	55	mm	100.000000	0	512
Frame#	Time	RPSI			LPSI			L3			STRN			T10			C7			CLAV			RBAK			LBAK			LSHO			LUPA			LAEL			LAOL			LWTS			LWPS			LFRA			LIFD			LHPS			LHTS			RSHO			RUPA			RAEL			RAOL			RWTS			RWPS			RFRA			RIFD			RHTS			RHPS			RBHD			LFHD			RFHD			LBHD			LHIP			RHIP			RASI			LASI			LKNE			LTHI			LANK			LTIP			LTOE			LMT1			LMT5			LHEE			RKNE			RANK			RTIP			RTOE			RMT1			RMT5			RHEE			RTHI			*53			*54			
		X1	Y1	Z1	X2	Y2	Z2	X3	Y3	Z3	X4	Y4	Z4	X5	Y5	Z5	X6	Y6	Z6	X7	Y7	Z7	X8	Y8	Z8	X9	Y9	Z9	X10	Y10	Z10	X11	Y11	Z11	X12	Y12	Z12	X13	Y13	Z13	X14	Y14	Z14	X15	Y15	Z15	X16	Y16	Z16	X17	Y17	Z17	X18	Y18	Z18	X19	Y19	Z19	X20	Y20	Z20	X21	Y21	Z21	X22	Y22	Z22	X23	Y23	Z23	X24	Y24	Z24	X25	Y25	Z25	X26	Y26	Z26	X27	Y27	Z27	X28	Y28	Z28	X29	Y29	Z29	X30	Y30	Z30	X31	Y31	Z31	X32	Y32	Z32	X33	Y33	Z33	X34	Y34	Z34	X35	Y35	Z35	X36	Y36	Z36	X37	Y37	Z37	X38	Y38	Z38	X39	Y39	Z39	X40	Y40	Z40	X41	Y41	Z41	X42	Y42	Z42	X43	Y43	Z43	X44	Y44	Z44	X45	Y45	Z45	X46	Y46	Z46	X47	Y47	Z47	X48	Y48	Z48	X49	Y49	Z49	X50	Y50	Z50	X51	Y51	Z51	X52	Y52	Z52	X53	Y53	Z53	X54	Y54	Z54	X55	Y55	Z55	

1	0	-1717.07421875	1055.078002929688	-522.9548950195312	-1707.643798828125	1053.3818359375	-647.1063232421875	-1710.69384765625	1091.1884765625	-583.27978515625	-1455.287963867188	1296.204833984375	-573.3222045898438	-1744.131591796875	1245.279052734375	-594.0738525390625	-1679.973388671875	1516.14306640625	-602.408203125	-1482.2265625	1409.745727539062	-584.5975952148438	-1753.6025390625	1339.744750976562	-496.5488891601562	-1679.159912109375	1490.573608398438	-704.5206298828125	-1595.211669921875	1475.99609375	-777.3510131835938	-1615.877685546875	1341.54052734375	-851.0716552734375	-1590.002563476562	1120.542846679688	-860.8232421875	-1648.178955078125	1106.512939453125	-796.3042602539062	-1479.454467773438	892.9810791015625	-802.8500366210938	-1549.459106445312	868.184814453125	-856.9494018554688	-1569.478637695312	1010.134704589844	-868.5645141601562	-1470.279174804688	718.44287109375	-762.4902954101562	-1528.117309570312	799.627685546875	-846.3709716796875	-1461.613891601562	813.8958129882812	-817.299560546875	-1628.041137695312	1492.43115234375	-416.3611450195312	-1649.005126953125	1425.415893554688	-347.2426452636719	-1653.100708007812	1133.079711914062	-296.4510803222656	-1660.79443359375	1127.739013671875	-394.7266235351562	-1509.356079101562	909.7383422851562	-324.5776672363281	-1583.421997070312	889.4796752929688	-276.4549560546875	-1626.563110351562	1061.047485351562	-280.4205322265625	-1491.782348632812	720.1832885742188	-351.8114929199219	-1482.310424804688	815.7615966796875	-318.9320373535156	-1554.21923828125	807.4317626953125	-280.4575500488281	-1591.637573242188	1694.223510742188	-521.599609375	-1418.267211914062	1694.139282226562	-653.1884155273438	-1416.6416015625	1693.366943359375	-524.078125	-1597.527587890625	1704.774658203125	-658.9871215820312	-1596.825927734375	989.2025146484375	-756.6494140625	-1571.712524414062	1014.759704589844	-388.24951171875	-1483.282592773438	1041.174072265625	-439.2127380371094	-1475.332153320312	1024.607666015625	-695.60595703125	-1604.042236328125	494.4349975585938	-715.3748168945312	-1589.391357421875	635.21875	-744.3336791992188	-1695.791137695312	40.77996826171875	-716.9718017578125	-1647.870727539062	275.645263671875	-729.4229125976562	-1473.30517578125	39.15034484863281	-708.979248046875	-1521.1474609375	39.56185531616211	-657.57470703125	-1590.3955078125	34.03241348266602	-765.0494384765625	-1740.318725585938	39.36175918579102	-643.6771240234375	-1583.25439453125	514.070556640625	-399.3136901855469	-1678.515625	37.54259872436523	-392.3171691894531	-1577.090576171875	397.4730529785156	-414.5621337890625	-1453.366821289062	40.31119537353516	-422.0431823730469	-1508.458740234375	38.68717575073242	-468.069091796875	-1566.723388671875	36.59646606445312	-355.6799621582031	-1726.675659179688	32.36182403564453	-460.9066162109375	-1533.848999023438	780.9451904296875	-373.4009704589844	nan	nan	nan	nan	nan	nan	
2	0.01	-1717.057250976562	1055.08935546875	-522.9800415039062	-1707.630615234375	1053.396850585938	-647.1328735351562	-1710.67822265625	1091.196044921875	-583.3060913085938	-1455.26025390625	1296.217529296875	-573.3508911132812	-1744.102416992188	1245.282470703125	-594.1193237304688	-1679.960571289062	1516.139038085938	-602.4684448242188	-1482.210815429688	1409.7529296875	-584.630615234375	-1753.577270507812	1339.75439453125	-496.5921325683594	-1679.136108398438	1490.571655273438	-704.5728149414062	-1595.174682617188	1475.986572265625	-777.3873291015625	-1615.84423828125	1341.5322265625	-851.1322021484375	-1589.961303710938	1120.523803710938	-860.8399047851562	-1648.15478515625	1106.509155273438	-796.3269653320312	-1479.468627929688	892.9606323242188	-802.8439331054688	-1549.415893554688	868.1698608398438	-856.941162109375	-1569.440185546875	1010.115234375	-868.5631713867188	-1470.290893554688	718.4358520507812	-762.4600219726562	-1528.093139648438	799.611083984375	-846.3485717773438	-1461.574096679688	813.8924560546875	-817.277099609375	-1628.010986328125	1492.442260742188	-416.3921508789062	-1648.975463867188	1425.42919921875	-347.2913513183594	-1652.997314453125	1133.07568359375	-296.4830017089844	-1660.748046875	1127.745239257812	-394.782958984375	-1509.204711914062	909.77783203125	-324.6513977050781	-1583.233642578125	889.4764404296875	-276.5243835449219	-1626.470092773438	1061.047241210938	-280.4892578125	-1491.556396484375	720.2252807617188	-351.9197692871094	-1482.124267578125	815.802490234375	-319.0274047851562	-1554.049926757812	807.4760131835938	-280.5694885253906	-1591.600463867188	1694.225341796875	-521.6505126953125	-1418.260864257812	1694.111083984375	-653.2572021484375	-1416.570678710938	1693.349853515625	-524.1553955078125	-1597.503662109375	1704.773315429688	-659.0301513671875	-1596.820068359375	989.2044067382812	-756.673828125	-1571.729736328125	1014.763061523438	-388.2843017578125	-1483.216552734375	1041.057861328125	-439.3180847167969	-1475.288330078125	1024.596435546875	-695.6433715820312	-1604.032104492188	494.4283752441406	-715.3839111328125	-1589.388061523438	635.2107543945312	-744.3567504882812	-1695.789184570312	40.78507995605469	-716.970458984375	-1647.857666015625	275.6341552734375	-729.4225463867188	-1473.306762695312	39.15375900268555	-708.981201171875	-1521.150756835938	39.55028533935547	-657.5780639648438	-1590.395141601562	34.03155136108398	-765.04931640625	-1740.324829101562	39.3572998046875	-643.676025390625	-1583.24755859375	514.0753173828125	-399.3257141113281	-1678.506225585938	37.52310943603516	-392.3202209472656	-1577.08837890625	397.4742736816406	-414.5780944824219	-1453.364868164062	40.30664443969727	-422.0415649414062	-1508.46044921875	38.68817138671875	-468.0695495605469	-1566.73046875	36.59666442871094	-355.6795959472656	-1726.670288085938	32.36190795898438	-460.8993225097656	-1534.125122070312	780.932373046875	-373.4322509765625	nan	nan	nan	nan	nan	nan	
3	0.02	-1717.034423828125	1055.101318359375	-523.0125732421875	-1707.6123046875	1053.413330078125	-647.164794921875	-1710.663940429688	1091.204711914062	-583.3414916992188	-1455.2294921875	1296.23291015625	-573.3880615234375	-1744.068237304688	1245.287353515625	-594.175537109375	-1679.943969726562	1516.134643554688	-602.5404663085938	-1482.192504882812	1409.763061523438	-584.67529296875	-1753.543579101562	1339.767578125	-496.6466979980469	-1679.107666015625	1490.56982421875	-704.637939453125	-1595.132934570312	1475.975341796875	-777.4338989257812	-1615.802368164062	1341.523315429688	-851.2070922851562	-1589.911010742188	1120.50341796875	-860.8630981445312	-1648.12109375	1106.505859375	-796.355224609375	-1479.473388671875	892.9451293945312	-802.840087890625	-1549.36572265625	868.1539306640625	-856.9330444335938	-1569.393310546875	1010.093322753906	-868.564453125	-1470.3017578125	718.4307250976562	-762.4277954101562	-1528.058959960938	799.59326171875	-846.32373046875	-1461.521850585938	813.8883056640625	-817.251708984375	-1627.972534179688	1492.458129882812	-416.4324035644531	-1648.93505859375	1425.447631835938	-347.3519592285156	-1652.867309570312	1133.071044921875	-296.52294921875	-1660.687255859375	1127.752685546875	-394.8536071777344	-1509.018432617188	909.8317260742188	-324.7605590820312	-1583.0009765625	889.4754028320312	-276.6190490722656	-1626.355712890625	1061.044921875	-280.5735473632812	-1491.267333984375	720.2824096679688	-352.0665588378906	-1481.892822265625	815.8556518554688	-319.1588745117188	-1553.838623046875	807.5270385742188	-280.7176818847656	-1591.554443359375	1694.225463867188	-521.7139282226562	-1418.2548828125	1694.08056640625	-653.3453979492188	-1416.48681640625	1693.32763671875	-524.25244140625	-1597.474731445312	1704.773315429688	-659.0841064453125	-1596.812133789062	989.207275390625	-756.706298828125	-1571.793212890625	1014.757446289062	-388.3323059082031	-1483.146118164062	1040.939819335938	-439.4319763183594	-1475.237060546875	1024.583740234375	-695.6928100585938	-1604.017456054688	494.4197692871094	-715.3955688476562	-1589.38427734375	635.2030029296875	-744.3841552734375	-1695.786376953125	40.79116058349609	-716.96728515625	-1647.840942382812	275.6217956542969	-729.4230346679688	-1473.308715820312	39.15670013427734	-708.9822387695312	-1521.155029296875	39.53921890258789	-657.57958984375	-1590.394775390625	34.03107070922852	-765.048583984375	-1740.331298828125	39.3524284362793	-643.672607421875	-1583.236572265625	514.0812377929688	-399.341552734375	-1678.500366210938	37.50831604003906	-392.3231811523438	-1577.086669921875	397.47412109375	-414.5975646972656	-1453.36328125	40.30215072631836	-422.0398254394531	-1508.46240234375	38.68854141235352	-468.0699768066406	-1566.7373046875	36.5965576171875	-355.6793823242188	-1726.663940429688	32.35954666137695	-460.8941040039062	-1534.402099609375	780.9202880859375	-373.4714965820312	nan	nan	nan	nan	nan	nan	
4	0.03	-1717.005981445312	1055.111938476562	-523.0515747070312	-1707.588134765625	1053.429321289062	-647.20068359375	-1710.6533203125	1091.214233398438	-583.3858642578125	-1455.1982421875	1296.249755859375	-573.4328002929688	-1744.031127929688	1245.293579101562	-594.2391967773438	-1679.924560546875	1516.130615234375	-602.619384765625	-1482.172485351562	1409.7763671875	-584.7315673828125	-1753.502075195312	1339.7841796875	-496.7098388671875	-1679.076293945312	1490.568481445312	-704.7134399414062	-1595.08984375	1475.963256835938	-777.4890747070312	-1615.75390625	1341.514404296875	-851.292724609375	-1589.855102539062	1120.484375	-860.89306640625	-1648.078857421875	1106.50390625	-796.3880615234375	-1479.464111328125	892.9376220703125	-802.8403930664062	-1549.31103515625	868.1389770507812	-856.9268798828125	-1569.340942382812	1010.070983886719	-868.56982421875	-1470.308349609375	718.4310302734375	-762.3974609375	-1528.013427734375	799.5760498046875	-846.2996215820312	-1461.45751953125	813.8843383789062	-817.2258911132812	-1627.926635742188	1492.478759765625	-416.4808654785156	-1648.8837890625	1425.470825195312	-347.4217529296875	-1652.71728515625	1133.06640625	-296.5703735351562	-1660.6142578125	1127.760986328125	-394.9350891113281	-1508.806518554688	909.8976440429688	-324.9053039550781	-1582.735473632812	889.4776611328125	-276.7384338378906	-1626.225830078125	1061.040161132812	-280.66943359375	-1490.926147460938	720.3541259765625	-352.2490844726562	-1481.626098632812	815.9181518554688	-319.3260498046875	-1553.595336914062	807.5807495117188	-280.8982543945312	-1591.50146484375	1694.222778320312	-521.7871704101562	-1418.249755859375	1694.05078125	-653.449951171875	-1416.396118164062	1693.300659179688	-524.3655395507812	-1597.442260742188	1704.775390625	-659.146728515625	-1596.802490234375	989.21142578125	-756.7462768554688	-1571.890991210938	1014.744323730469	-388.3911437988281	-1483.077758789062	1040.832885742188	-439.5445251464844	-1475.18115234375	1024.569946289062	-695.7536010742188	-1603.997924804688	494.4097595214844	-715.4095458984375	-1589.379272460938	635.1962890625	-744.41357421875	-1695.782836914062	40.79779434204102	-716.9618530273438	-1647.8212890625	275.60986328125	-729.4247436523438	-1473.311157226562	39.158935546875	-708.9825439453125	-1521.159790039062	39.53042602539062	-657.5789184570312	-1590.39453125	34.03143692016602	-765.0468139648438	-1740.337646484375	39.34793853759766	-643.6665649414062	-1583.22119140625	514.0878295898438	-399.3607177734375	-1678.499633789062	37.50198364257812	-392.3258972167969	-1577.085693359375	397.4722900390625	-414.6199340820312	-1453.3623046875	40.29808807373047	-422.0384216308594	-1508.463989257812	38.68820190429688	-468.0704956054688	-1566.74267578125	36.59627532958984	-355.6794128417969	-1726.656494140625	32.35430145263672	-460.8921203613281	-1534.633056640625	780.9115600585938	-373.515625	nan	nan	nan	nan	nan	nan	
